<?xml version="1.0" standalone="no"?>
<!DOCTYPE svg PUBLIC "-//W3C//DTD SVG 20010904//EN"
 "http://www.w3.org/TR/2001/REC-SVG-20010904/DTD/svg10.dtd">
<svg version="1.0" xmlns="http://www.w3.org/2000/svg"
 width="420.000000pt" height="331.000000pt" viewBox="0 0 420.000000 331.000000"
 preserveAspectRatio="xMidYMid meet">

<g transform="translate(0.000000,331.000000) scale(0.100000,-0.100000)"
fill="#000000" stroke="none">
<path d="M1780 3294 c-362 -52 -606 -153 -897 -371 -120 -90 -263 -227 -263
-252 0 -4 -9 -16 -20 -26 -11 -10 -17 -22 -13 -28 3 -6 1 -7 -5 -3 -7 4 -12 2
-12 -4 0 -6 -5 -8 -12 -4 -6 4 -8 3 -5 -3 4 -5 -29 -48 -73 -93 -43 -46 -78
-86 -77 -90 1 -3 -8 -17 -21 -30 -29 -31 -108 -161 -157 -260 -85 -169 -168
-428 -194 -606 -65 -435 33 -839 272 -1124 61 -73 183 -180 202 -179 28 3 46
-2 40 -11 -3 -5 1 -10 9 -10 8 0 31 -14 50 -31 19 -16 36 -29 38 -28 7 5 48
-13 48 -21 0 -14 150 -67 240 -85 276 -53 616 -8 882 118 68 32 52 33 -157 2
-291 -44 -336 -48 -447 -41 -246 15 -474 108 -649 265 -31 28 -60 47 -64 43
-5 -4 -5 -1 0 6 4 9 -4 25 -23 45 -133 142 -237 405 -258 655 -8 90 -12 83 64
102 38 10 42 14 42 42 0 30 -1 30 -39 24 -22 -3 -46 -9 -55 -12 -20 -8 -21 31
-6 156 32 258 148 575 281 772 23 34 42 67 42 73 0 21 31 13 70 -17 l37 -30
20 24 c20 23 26 48 13 48 -5 0 -24 13 -43 29 l-34 29 58 71 c32 39 106 117
165 173 58 56 105 106 103 110 -1 5 2 7 8 3 6 -4 26 7 44 23 53 47 196 137
289 183 47 24 83 47 80 52 -3 6 -1 7 4 4 6 -4 41 4 77 18 37 14 69 25 71 25 3
0 5 -39 5 -86 0 -85 0 -86 23 -80 12 3 25 6 30 6 4 0 7 40 7 89 l0 89 33 11
c211 67 544 53 747 -32 88 -36 180 -88 180 -100 0 -5 -31 -50 -70 -100 -66
-85 -69 -92 -53 -109 9 -10 19 -18 23 -18 3 0 39 43 78 95 40 52 76 95 80 95
4 0 31 -21 60 -46 29 -25 58 -44 66 -41 7 3 16 22 19 43 3 20 16 47 27 59 l21
22 -70 66 c-166 156 -377 257 -611 293 -86 13 -256 17 -320 8z"/>
<path d="M1512 2748 c-6 -8 -12 -144 -16 -383 -4 -203 -9 -410 -12 -459 -5
-83 -5 -88 13 -81 10 5 38 13 62 19 l43 11 -6 95 c-3 52 -10 239 -17 415 -6
176 -14 336 -18 355 -7 37 -30 50 -49 28z"/>
<path d="M2662 2462 c-124 -44 -146 -133 -51 -201 37 -27 49 -30 113 -30 39 1
74 6 77 11 4 6 24 14 45 17 48 8 87 58 78 100 -21 95 -146 144 -262 103z m66
-39 c5 -17 -26 -29 -40 -15 -6 6 -7 15 -3 22 9 14 37 9 43 -7z m111 -5 c-10
-19 -54 -25 -64 -8 -11 18 6 31 40 28 29 -2 32 -4 24 -20z m-135 -61 c9 -15 7
-21 -8 -33 -25 -18 -29 -18 -56 4 -21 17 -22 19 -5 36 21 21 54 18 69 -7z
m161 -22 c0 -23 -30 -32 -51 -14 -11 9 -12 15 -2 26 17 20 53 12 53 -12z m-97
-52 c-4 -20 -18 -26 -37 -14 -18 12 -5 31 20 31 14 0 19 -6 17 -17z"/>
<path d="M2087 2334 c-26 -31 -44 -60 -41 -66 4 -6 2 -8 -4 -4 -6 3 -28 -15
-49 -41 -21 -27 -41 -50 -44 -53 -40 -35 -268 -314 -263 -322 4 -6 2 -8 -4 -4
-21 12 -21 -11 -1 -30 12 -10 26 -31 32 -47 l12 -28 70 93 c39 51 69 99 69
105 -1 7 2 11 6 8 6 -4 283 351 313 402 10 17 -9 43 -32 43 -9 0 -37 -26 -64
-56z"/>
<path d="M2732 2103 c-6 -2 -9 -10 -6 -15 4 -7 2 -8 -5 -4 -17 11 -64 -22 -57
-40 3 -9 1 -12 -4 -9 -6 4 -10 -9 -10 -30 0 -45 44 -91 96 -101 89 -17 215 23
200 63 -3 8 -1 11 4 8 6 -4 10 8 10 28 0 63 -68 108 -162 106 -29 0 -59 -3
-66 -6z m149 -29 c10 -13 10 -17 -2 -25 -8 -5 -20 -9 -27 -9 -19 0 -27 31 -11
41 19 12 25 11 40 -7z m-87 -3 c3 -5 0 -13 -7 -19 -15 -13 -42 1 -33 17 9 13
33 15 40 2z m-28 -49 c6 -4 13 -16 16 -27 4 -18 0 -20 -29 -19 -19 0 -39 7
-43 14 -17 27 27 52 56 32z m148 -21 c8 -13 -17 -30 -40 -29 -30 3 -19 38 12
38 12 0 25 -4 28 -9z m-84 -56 c0 -8 -9 -15 -20 -15 -11 0 -20 7 -20 15 0 8 9
15 20 15 11 0 20 -7 20 -15z"/>
<path d="M2148 1950 c-70 -38 -97 -103 -58 -145 18 -19 25 -20 102 -12 46 4
89 8 96 9 21 2 62 58 62 85 0 14 -13 37 -29 54 -25 25 -37 29 -83 29 -32 -1
-67 -8 -90 -20z m111 -4 c10 -12 8 -17 -7 -25 -25 -13 -49 8 -30 27 16 16 23
15 37 -2z m-73 -27 c8 -14 -18 -31 -30 -19 -9 9 0 30 14 30 5 0 12 -5 16 -11z
m122 -36 c-4 -22 -48 -31 -48 -10 0 19 10 27 32 27 13 0 18 -6 16 -17z m-128
-13 c21 -13 0 -45 -30 -45 -29 0 -36 18 -15 39 19 18 24 19 45 6z m66 -59
c-10 -16 -36 -13 -36 3 0 17 21 27 34 16 4 -5 5 -13 2 -19z"/>
<path d="M1515 1798 c-94 -52 -142 -173 -98 -248 46 -79 175 -61 240 33 21 30
28 54 31 101 4 57 2 64 -26 94 -26 28 -37 32 -79 32 -26 0 -57 -6 -68 -12z"/>
<path d="M3361 1654 c-79 -12 -145 -25 -147 -27 -4 -4 82 -582 90 -603 3 -7
61 -2 177 16 l174 26 -3 45 c-2 24 -8 48 -12 53 -5 5 -53 2 -112 -7 -57 -8
-105 -13 -107 -11 -3 2 -10 38 -16 78 l-12 74 61 11 c34 5 80 13 104 16 l44 7
-7 52 c-4 28 -8 52 -9 53 -1 1 -46 -5 -100 -13 -55 -9 -102 -12 -107 -7 -5 5
-10 35 -11 68 l-3 60 105 15 c88 13 105 18 104 33 0 9 -1 33 -2 52 -2 33 -4
35 -34 34 -18 -1 -98 -12 -177 -25z"/>
<path d="M4032 1607 l-54 -12 -30 -70 c-16 -38 -33 -73 -37 -78 -4 -4 -31 22
-60 58 -29 36 -58 65 -64 65 -6 0 -39 -5 -74 -11 l-63 -11 90 -99 c49 -55 90
-105 90 -112 0 -6 -25 -65 -55 -130 -30 -66 -55 -121 -55 -124 0 -7 112 7 130
17 9 5 31 45 49 89 23 57 37 79 45 72 6 -5 34 -37 61 -70 l50 -61 55 6 c100
12 100 10 14 104 -43 47 -86 95 -97 107 -19 22 -19 22 37 142 31 67 56 123 56
126 0 7 -28 5 -88 -8z"/>
<path d="M2883 1434 c-23 -8 -56 -32 -74 -51 -28 -33 -31 -41 -27 -85 7 -72
41 -102 148 -134 47 -14 93 -34 103 -43 22 -22 13 -49 -20 -62 -32 -12 -119
-12 -162 1 l-33 9 6 -52 c4 -28 10 -54 13 -57 10 -10 169 -4 213 9 26 8 60 28
82 51 35 35 38 42 38 95 0 51 -3 60 -33 90 -22 22 -53 39 -93 50 -108 29 -129
39 -132 62 -5 33 57 49 128 34 29 -6 54 -10 55 -9 7 10 23 93 19 98 -14 13
-191 9 -231 -6z"/>
<path d="M2400 1362 c-30 -10 -67 -26 -82 -36 -28 -18 -28 -18 -10 -48 28 -49
36 -51 87 -23 47 24 108 32 132 17 12 -8 36 -62 30 -68 -2 -2 -36 -10 -75 -19
-138 -29 -192 -73 -192 -157 0 -81 45 -140 115 -154 55 -10 139 20 173 62 l30
36 16 -30 c14 -28 19 -30 58 -25 24 3 45 7 46 9 9 7 -51 352 -66 378 -9 16
-30 38 -45 50 -38 28 -143 32 -217 8z m174 -264 c11 -42 6 -59 -23 -89 -37
-36 -104 -42 -121 -10 -25 47 -5 85 55 106 59 21 82 19 89 -7z"/>
<path d="M1186 1359 c-35 -10 -46 -24 -46 -61 0 -36 24 -58 63 -58 45 0 77 25
77 59 0 51 -38 75 -94 60z"/>
<path d="M1976 1295 c-81 -13 -150 -26 -153 -29 -3 -3 -2 -26 1 -51 8 -52 -8
-49 135 -24 34 5 65 8 68 5 3 -2 -31 -74 -76 -159 -65 -123 -81 -163 -81 -197
l0 -43 53 6 c28 4 114 16 189 28 l138 22 -6 41 c-4 22 -9 44 -13 48 -4 4 -51
1 -105 -8 -54 -9 -100 -14 -102 -11 -3 3 32 75 76 161 75 143 81 159 75 196
-8 47 5 46 -199 15z"/>
<path d="M728 1251 c-59 -9 -109 -19 -113 -22 -5 -6 82 -600 90 -607 2 -2 30
0 64 4 70 8 67 0 46 129 -8 50 -15 93 -15 96 0 4 24 10 53 13 162 21 244 129
203 270 -18 62 -64 109 -123 125 -48 14 -73 13 -205 -8z m184 -121 c25 -31 24
-102 -2 -125 -22 -20 -111 -47 -121 -36 -8 7 -29 126 -29 159 0 15 8 22 28 25
53 9 106 -1 124 -23z"/>
<path d="M1561 1232 l-163 -26 5 -43 c2 -24 7 -47 10 -50 4 -3 49 1 102 9 52
8 95 13 95 10 0 -3 -38 -78 -84 -166 -72 -139 -83 -166 -79 -199 5 -36 7 -37
37 -32 17 3 92 14 166 25 193 29 177 22 171 72 -7 52 -14 54 -134 35 -48 -8
-87 -11 -87 -7 0 4 36 77 80 161 74 142 80 157 74 197 -3 23 -11 41 -18 41 -6
-1 -85 -13 -175 -27z"/>
<path d="M1221 1179 c-30 -5 -55 -10 -56 -12 -1 -1 15 -107 34 -235 l36 -234
55 7 c30 4 59 10 64 15 5 5 -6 102 -24 222 -34 228 -38 249 -48 247 -4 -1 -31
-5 -61 -10z"/>
</g>
</svg>
